<svg xmlns="http://www.w3.org/2000/svg" width="240" height="240" viewBox="0 0 240 240" fill="none">
  <!-- Background elements -->
  <rect x="20" y="40" width="200" height="160" rx="10" fill="#1E293B" opacity="0.5"/>
  
  <!-- Book icon -->
  <g transform="translate(60, 70)">
    <rect x="0" y="0" width="60" height="80" rx="4" fill="#3B82F6" opacity="0.8"/>
    <rect x="10" y="10" width="40" height="5" rx="2" fill="white" opacity="0.7"/>
    <rect x="10" y="20" width="40" height="5" rx="2" fill="white" opacity="0.7"/>
    <rect x="10" y="30" width="30" height="5" rx="2" fill="white" opacity="0.7"/>
  </g>
  
  <!-- Document icon -->
  <g transform="translate(130, 60)">
    <path d="M10,0 L50,0 L60,10 L60,80 L10,80 Z" fill="#60A5FA" opacity="0.8"/>
    <path d="M50,0 L50,10 L60,10 Z" fill="#2563EB" opacity="0.9"/>
    <rect x="20" y="20" width="30" height="4" rx="2" fill="white" opacity="0.7"/>
    <rect x="20" y="30" width="30" height="4" rx="2" fill="white" opacity="0.7"/>
    <rect x="20" y="40" width="20" height="4" rx="2" fill="white" opacity="0.7"/>
  </g>
  
  <!-- Video icon -->
  <g transform="translate(140, 150)">
    <rect x="0" y="0" width="60" height="40" rx="5" fill="#4F46E5" opacity="0.8"/>
    <polygon points="25,10 40,20 25,30" fill="white"/>
  </g>
  
  <!-- Link icon -->
  <g transform="translate(40, 150)">
    <circle cx="20" cy="20" r="20" fill="#3B82F6" opacity="0.7"/>
    <path d="M15,20 L25,20 M20,15 L20,25" stroke="white" stroke-width="3" stroke-linecap="round"/>
  </g>
  
  <!-- Decorative elements -->
  <circle cx="200" cy="40" r="8" fill="#60A5FA" opacity="0.6"/>
  <circle cx="40" cy="60" r="5" fill="#60A5FA" opacity="0.6"/>
  <circle cx="180" cy="180" r="6" fill="#60A5FA" opacity="0.6"/>
</svg>